HIERARCHY
ROOT SpineBase
{
  OFFSET 0.000000 0.000000 0.000000
  CHANNELS 6 Xposition Yposition Zposition Zrotation Xrotation Yrotation
  JOINT SpineMid
  {
    OFFSET -0.000000 32.291174 0.000000
    CHANNELS 3 Zrotation Xrotation Yrotation
    JOINT SpineShoulder
    {
      OFFSET 0.293836 24.004238 -0.734313
      CHANNELS 3 Zrotation Xrotation Yrotation
      JOINT Neck
      {
        OFFSET 0.202122 7.961420 -0.557070
        CHANNELS 3 Zrotation Xrotation Yrotation
        JOINT Head
        {
          OFFSET 7.342078 9.359816 3.757068
          CHANNELS 3 Zrotation Xrotation Yrotation
          End Site
          {
            OFFSET 0 0 0
          }
        }
      }
      JOINT ShoulderLeft
      {
        OFFSET -3.636125 -1.444953 -14.850116
        CHANNELS 3 Zrotation Xrotation Yrotation
        JOINT ElbowLeft
        {
          OFFSET -4.008495 -23.670741 -9.454241
          CHANNELS 3 Zrotation Xrotation Yrotation
          JOINT WristLeft
          {
            OFFSET 2.900702 -22.816675 -1.519923
            CHANNELS 3 Zrotation Xrotation Yrotation
            JOINT HandLeft
            {
              OFFSET 0.739479 -6.850056 -0.107407
              CHANNELS 3 Zrotation Xrotation Yrotation
              JOINT HandTipLeft
              {
                OFFSET 0.493527 -6.527894 -0.021909
                CHANNELS 3 Zrotation Xrotation Yrotation
                End Site
                {
                  OFFSET 0 0 0
                }
              }
              JOINT ThumbLeft
              {
                OFFSET 3.073875 1.142257 -0.330219
                CHANNELS 3 Zrotation Xrotation Yrotation
                End Site
                {
                  OFFSET 0 0 0
                }
              }
            }
          }
        }
      }
      JOINT ShoulderRight
      {
        OFFSET 5.102416 -6.968914 16.930217
        CHANNELS 3 Zrotation Xrotation Yrotation
        JOINT ElbowRight
        {
          OFFSET 4.563330 -19.983912 6.590312
          CHANNELS 3 Zrotation Xrotation Yrotation
          JOINT WristRight
          {
            OFFSET -8.004674 -14.378682 -25.817511
            CHANNELS 3 Zrotation Xrotation Yrotation
            JOINT HandRight
            {
              OFFSET -6.520535 -16.364842 -22.947173
              CHANNELS 3 Zrotation Xrotation Yrotation
              JOINT HandTipRight
              {
                OFFSET -0.829152 -2.128427 -1.249963
                CHANNELS 3 Zrotation Xrotation Yrotation
                End Site
                {
                  OFFSET 0 0 0
                }
              }
              JOINT ThumbRight
              {
                OFFSET 3.428908 1.750404 -1.695505
                CHANNELS 3 Zrotation Xrotation Yrotation
                End Site
                {
                  OFFSET 0 0 0
                }
              }
            }
          }
        }
      }
    }
  }
  JOINT HipLeft
  {
    OFFSET -0.590051 2.503172 -9.425421
    CHANNELS 3 Zrotation Xrotation Yrotation
    JOINT KneeLeft
    {
      OFFSET -8.704123 -35.275959 -7.074871
      CHANNELS 3 Zrotation Xrotation Yrotation
      JOINT AnkleLeft
      {
        OFFSET -8.146331 -28.334909 0.076708
        CHANNELS 3 Zrotation Xrotation Yrotation
        JOINT FootLeft
        {
          OFFSET 2.509208 -7.335861 2.506882
          CHANNELS 3 Zrotation Xrotation Yrotation
          End Site
          {
            OFFSET 0 0 0
          }
        }
      }
    }
  }
  JOINT HipRight
  {
    OFFSET 2.801399 -0.081090 2.661185
    CHANNELS 3 Zrotation Xrotation Yrotation
    JOINT KneeRight
    {
      OFFSET -2.702068 -35.829155 -3.165671
      CHANNELS 3 Zrotation Xrotation Yrotation
      JOINT AnkleRight
      {
        OFFSET -13.363287 -32.720634 0.356881
        CHANNELS 3 Zrotation Xrotation Yrotation
        JOINT FootRight
        {
          OFFSET 1.120616 -6.887235 -3.438845
          CHANNELS 3 Zrotation Xrotation Yrotation
          End Site
          {
            OFFSET 0 0 0
          }
        }
      }
    }
  }
}
MOTION
Frames: 8
Frame Time: 0.033333
-100.848502 76.766114 322.777375 -0.401563 0.728772 -72.656345 0.815339 0.166065 72.657717 -0.000000 0.000000 0.000000 8.442072 -1.327523 -2.405580 0.000000 0.000000 0.000000 -1.085544 -0.299657 0.481220 2.367245 0.582578 -0.543005 -1.138487 -1.611620 -0.097964 3.105408 -0.098134 -0.006782 0.000000 0.000000 0.000000 0.000000 0.000000 0.000000 -4.964934 12.173255 1.760884 4.188337 -10.726646 -0.752146 0.354978 -3.478635 0.946450 7.257382 0.801666 -5.081947 0.000000 0.000000 0.000000 0.000000 0.000000 0.000000 1.262729 -1.422706 73.161580 1.391126 0.888392 -0.509741 -0.211365 1.078196 0.299715 0.000000 0.000000 0.000000 1.484009 -2.553890 72.992621 1.925125 3.422204 -1.145379 35.720217 8.920583 -16.177427 0.000000 0.000000 0.000000
-100.673375 76.830005 322.616862 -0.403546 0.877738 -72.333386 0.145735 -0.055738 72.314474 0.412699 -0.721807 0.024057 8.701474 -1.613958 -2.257865 0.000000 0.000000 0.000000 -1.216733 -0.333198 0.538529 2.368855 0.742408 -0.577507 -1.144741 -0.432146 0.017028 2.981914 -1.591256 -0.088731 0.000000 0.000000 0.000000 0.000000 0.000000 0.000000 -5.479716 14.999499 2.493423 4.392682 -13.385851 -1.111872 0.288137 -4.604860 1.496363 2.422231 4.097824 -3.453978 0.000000 0.000000 0.000000 0.000000 0.000000 0.000000 1.420221 -1.686187 72.901205 1.589017 0.971473 -0.572875 0.296325 1.097823 0.475075 0.000000 0.000000 0.000000 1.586372 -2.882564 72.700056 2.205747 3.360947 -1.130756 35.660334 7.588258 -16.135693 0.000000 0.000000 0.000000
-100.511469 76.895288 322.456010 -0.406884 1.024295 -72.003017 0.175324 -0.065825 71.983058 -0.082734 -0.120852 -0.031230 9.379046 -2.597095 -1.906227 0.000000 0.000000 0.000000 -0.846130 -1.065994 0.631128 2.345279 0.907265 -0.602519 -1.900929 -0.792239 -0.032451 3.855659 -1.433818 -0.095812 0.000000 0.000000 0.000000 0.000000 0.000000 0.000000 -5.485442 15.214414 2.659398 4.767179 -14.081897 -1.097024 -0.002273 -4.693807 1.934015 -0.255638 5.683535 -2.530291 0.000000 0.000000 0.000000 0.000000 0.000000 0.000000 1.506603 -1.945602 72.619898 1.802712 0.990293 -0.622845 0.370687 0.929283 0.442268 0.000000 0.000000 0.000000 1.673580 -3.189182 72.396761 2.490161 3.255208 -1.102221 32.096429 6.936267 -14.371354 0.000000 0.000000 0.000000
-100.372353 76.946901 322.315914 -0.422317 1.140378 -71.662076 0.204567 -0.062091 71.641555 -0.079141 -0.138341 -0.031884 9.431182 -2.948809 -1.656859 0.000000 0.000000 0.000000 -0.954470 -1.160951 0.675643 2.291202 1.079022 -0.619131 -1.802253 -0.519858 -0.015788 2.838067 -0.898860 -0.076311 0.000000 0.000000 0.000000 0.000000 0.000000 0.000000 -5.811346 14.208260 2.291748 5.095751 -12.677076 -0.785465 -0.133404 -3.919200 1.797193 -3.205740 7.466095 -1.369833 0.000000 0.000000 0.000000 0.000000 0.000000 0.000000 1.483713 -2.147325 72.301831 2.004363 0.921150 -0.647182 -0.083396 0.837263 0.259210 0.000000 0.000000 0.000000 1.716409 -3.439948 72.077042 2.771144 3.054791 -1.041285 22.576060 9.789005 -9.639847 0.000000 0.000000 0.000000
-100.252614 76.974225 322.198123 -0.457287 1.217852 -71.442645 0.227002 -0.040805 71.421951 -0.063713 -0.153011 -0.031494 9.351419 -3.207270 -1.425165 0.000000 0.000000 0.000000 -1.054213 -1.204755 0.709134 2.258161 1.199369 -0.629586 -1.925557 0.093324 0.046039 1.749603 -2.940078 -0.245770 0.000000 0.000000 0.000000 0.000000 0.000000 0.000000 -5.278416 14.801647 2.604301 4.187416 -12.715756 -1.113518 -1.011597 -5.176593 3.457077 -2.906323 10.553462 -3.224052 0.000000 0.000000 0.000000 0.000000 0.000000 0.000000 1.335197 -2.299984 72.081802 2.506374 -0.284712 -0.350933 -1.214051 2.040857 -0.246885 0.000000 0.000000 0.000000 1.727958 -3.549587 71.865811 2.918863 2.832161 -0.971653 11.879392 5.826332 -4.336757 0.000000 0.000000 0.000000
-100.142940 76.987005 322.096075 -0.517030 1.265804 -71.160649 0.240806 -0.010049 71.139693 -0.037957 -0.167843 -0.030748 9.216847 -3.395145 -1.219810 0.000000 0.000000 0.000000 -1.172764 -1.252141 0.756609 2.295184 1.334717 -0.658856 -2.342039 1.055796 0.159342 1.221384 -5.006399 -0.469759 0.000000 0.000000 0.000000 0.000000 0.000000 0.000000 -5.229728 16.844396 3.257657 3.797476 -14.651656 -1.580248 -1.559857 -6.203542 4.592559 -3.739713 12.022554 -3.439484 0.000000 0.000000 0.000000 0.000000 0.000000 0.000000 1.159009 -2.408565 71.794725 2.923695 -0.715209 -0.272136 -2.270500 2.499780 -0.508887 0.000000 0.000000 0.000000 1.652962 -3.609237 71.584683 3.048005 2.533099 -0.890153 7.407422 6.830173 -2.055564 0.000000 0.000000 0.000000
-100.016865 76.986301 322.007176 -0.572285 1.292665 -70.636490 0.221836 0.001188 70.614248 -0.027379 -0.161246 -0.032689 9.061054 -3.702138 -0.896615 0.000000 0.000000 0.000000 -1.346162 -1.317904 0.841282 2.533897 1.438747 -0.735291 -2.838090 1.490362 0.219372 1.486972 -5.796088 -0.555582 0.000000 0.000000 0.000000 0.000000 0.000000 0.000000 -5.514309 19.566931 4.085266 3.828513 -17.792556 -2.082767 -1.809969 -6.789746 5.191173 -2.284001 15.278915 -5.441816 0.000000 0.000000 0.000000 0.000000 0.000000 0.000000 0.945490 -2.517192 71.264124 3.334835 -1.135299 -0.193916 -3.079881 3.086799 -0.632558 0.000000 0.000000 0.000000 1.509212 -3.750903 71.067039 3.233208 2.274449 -0.833964 11.052139 2.551498 -4.413404 0.000000 0.000000 0.000000
-99.877647 76.978165 321.928697 -0.626281 1.293988 -69.952552 0.180453 0.001682 69.928419 -0.029018 -0.147046 -0.036325 8.942065 -4.026427 -0.559486 0.000000 0.000000 0.000000 -1.440531 -1.434060 0.916601 2.694395 1.604440 -0.798184 -3.537498 1.962841 0.290306 2.110267 -5.699552 -0.556189 0.000000 0.000000 0.000000 0.000000 0.000000 0.000000 -6.316975 21.750983 4.692950 4.733806 -21.011359 -2.205225 -1.755507 -6.852295 5.243434 1.104287 14.649395 -7.590076 0.000000 0.000000 0.000000 0.000000 0.000000 0.000000 0.780236 -2.619439 70.589021 3.661657 -1.441709 -0.141545 -3.726594 3.717827 -0.679146 0.000000 0.000000 0.000000 1.284135 -3.937720 70.390932 3.448832 2.015153 -0.790200 8.376172 -3.175379 -3.745589 0.000000 0.000000 0.000000
